<svg width="180" height="180" viewBox="0 0 180 180" fill="none" xmlns="http://www.w3.org/2000/svg">
<path d="M0 64C0 41.5979 0 30.3968 4.35974 21.8404C8.19467 14.3139 14.3139 8.19467 21.8404 4.35974C30.3968 0 41.5979 0 64 0H116C138.402 0 149.603 0 158.16 4.35974C165.686 8.19467 171.805 14.3139 175.64 21.8404C180 30.3968 180 41.5979 180 64V116C180 138.402 180 149.603 175.64 158.16C171.805 165.686 165.686 171.805 158.16 175.64C149.603 180 138.402 180 116 180H64C41.5979 180 30.3968 180 21.8404 175.64C14.3139 171.805 8.19467 165.686 4.35974 158.16C0 149.603 0 138.402 0 116V64Z" fill="#FF5050"/>
<path d="M43.262 36.6138L121.862 61.9102L82.11 74.5584L43.262 36.6138Z" fill="white"/>
<path d="M163.311 75.7424L101.986 82.6894L120.811 61.5475L163.311 75.7424Z" fill="white"/>
<ellipse cx="114" cy="122.5" rx="10" ry="8.5" fill="white"/>
<path d="M68.5584 88.1102L74.8825 81.7861L78.4963 83.593L85.2076 87.2068L90.241 89.9171L27 133.282L56.8136 99.855L68.5584 88.1102Z" fill="white"/>
<path d="M120.965 45.0682C120.965 50.34 121.724 57 116.211 57C110.698 57 101 51.7718 101 46.5C101 41.2282 103.568 36 109.081 36C114.594 36 120.965 39.7964 120.965 45.0682Z" fill="white"/>
<path d="M73.0757 101.662L74.8826 81.7859L82.1101 74.5584L120.958 61.9102L101.986 82.6894L100.179 89.9169L105.6 93.5307L112.532 98.5694C113.551 99.3102 113.64 100.798 112.716 101.654L101.986 111.6L79.3998 130.572L94.7583 103.469V102.565V101.662L93.8549 100.758L92.9514 99.8548L92.048 98.9513L91.1445 98.0479L89.3377 97.1444L86.6273 96.241H84.8204H83.0136L80.3032 97.1444L78 98.5L73.0757 101.662Z" fill="white"/>
</svg>
